<!-- Generated by IcoMoon.io -->
<svg version="1.1" xmlns="http://www.w3.org/2000/svg" width="33" height="24" viewBox="0 0 33 24">
<title>delivery</title>
<path fill="#555" d="M16.004 6.089c-0.51-0.002-0.923-0.415-0.925-0.925v-4.522h0.706v4.522c0 0 0 0.001 0 0.001 0 0.12 0.097 0.217 0.217 0.217 0.043 0 0.083-0.012 0.117-0.034l-0.001 0.001 1.546-0.972c0.14-0.088 0.309-0.14 0.491-0.14s0.352 0.052 0.495 0.143l-0.004-0.002 1.544 0.971c0.033 0.021 0.073 0.034 0.116 0.034 0.12 0 0.217-0.097 0.217-0.217 0-0 0-0 0-0.001v0-4.521h0.706v4.522c0 0 0 0 0 0 0 0.347-0.191 0.649-0.473 0.807l-0.005 0.002c-0.128 0.073-0.282 0.117-0.446 0.117-0.183 0-0.353-0.054-0.496-0.146l0.004 0.002-1.543-0.972c-0.033-0.021-0.073-0.033-0.116-0.033s-0.083 0.012-0.117 0.034l0.001-0.001-1.546 0.971c-0.139 0.090-0.308 0.143-0.49 0.144h-0z"></path>
<path fill="#555" d="M21.562 23.999h-8.526c-0.777-0.001-1.509-0.188-2.156-0.519l0.027 0.012-5.964-3.005c-0.116-0.059-0.194-0.178-0.194-0.315v-6.847c0-0.195 0.158-0.353 0.353-0.353v0h5.692c0.006-0 0.014-0 0.021-0 0.644 0 1.257 0.128 1.817 0.36l-0.032-0.012c0.676 0.279 1.254 0.587 1.797 0.943l-0.041-0.025c0.205 0.133 0.383 0.252 0.539 0.357 0.913 0.614 1.129 0.76 2.915 0.76h6.382c0.011-0 0.024-0 0.037-0 0.531 0 1.016 0.2 1.382 0.529l-0.002-0.002c0.296 0.268 0.498 0.636 0.55 1.050l0.001 0.008c0.015 0.108 0.024 0.233 0.024 0.36 0 0.027-0 0.054-0.001 0.081l0-0.004 0.275-0.145h0.006l4.074-2.047c0.238-0.123 0.52-0.196 0.819-0.196 0.645 0 1.212 0.337 1.533 0.845l0.004 0.007c0.174 0.272 0.277 0.604 0.277 0.96 0 0.661-0.355 1.239-0.885 1.553l-0.008 0.005-8.646 5.073c-0.593 0.355-1.308 0.565-2.072 0.565h-0zM5.458 19.956l5.769 2.908c0.527 0.271 1.149 0.43 1.808 0.431h8.527c0.001 0 0.002 0 0.002 0 0.63 0 1.22-0.173 1.725-0.474l-0.015 0.009 8.648-5.082c0.328-0.194 0.545-0.547 0.545-0.949 0-0.217-0.063-0.419-0.171-0.59l0.003 0.004c-0.199-0.315-0.545-0.521-0.939-0.521-0.182 0-0.354 0.044-0.506 0.122l0.006-0.003-4.072 2.047-0.889 0.467c-0.048 0.071-0.098 0.133-0.152 0.192l0.001-0.001c-0.498 0.54-1.384 0.776-2.706 0.721h-6.344c-0.195 0-0.353-0.158-0.353-0.353s0.158-0.353 0.353-0.353v0h6.366c1.090 0.046 1.818-0.12 2.162-0.494 0.163-0.202 0.262-0.462 0.262-0.746 0-0.094-0.011-0.185-0.031-0.273l0.002 0.008c-0.033-0.252-0.154-0.471-0.33-0.63l-0.001-0.001c-0.238-0.21-0.553-0.338-0.898-0.338-0.013 0-0.025 0-0.038 0.001l0.002-0h-6.379c-1.922 0-2.273-0.183-3.311-0.882-0.154-0.103-0.328-0.22-0.528-0.353-0.469-0.309-1.008-0.596-1.574-0.833l-0.066-0.024c-0.449-0.187-0.97-0.295-1.517-0.295-0.007 0-0.015 0-0.022 0h-5.34z"></path>
<path fill="#555" d="M1.153 9.913h3.149c0.636 0.001 1.152 0.516 1.153 1.153v11.396c-0.001 0.636-0.516 1.152-1.153 1.153h-3.149c-0.637-0.001-1.153-0.517-1.153-1.153v-11.394c0.001-0.637 0.517-1.153 1.153-1.153h0zM4.302 22.909c0.247-0 0.446-0.2 0.447-0.447v-11.396c-0-0.247-0.2-0.446-0.447-0.447h-3.149c-0.247 0-0.447 0.201-0.448 0.447v11.394c0 0.247 0.201 0.447 0.447 0.448h0z"></path>
<path fill="#555" d="M28.252 16.899h-0.706v-15.757c-0-0.241-0.195-0.436-0.436-0.436h-17.803c-0.241 0-0.436 0.196-0.436 0.436 0 0 0 0 0 0v0 12.221h-0.706v-12.221c0-0.63 0.511-1.141 1.141-1.142h17.803c0.631 0 1.142 0.511 1.143 1.142v0z"></path>
</svg>
